<svg xmlns="http://www.w3.org/2000/svg" viewBox="0 0 100 100">
  <defs>
    <linearGradient id="bg" x1="0" y1="0" x2="1" y2="1">
      <stop offset="0" stop-color="#003a59"/>
      <stop offset="1" stop-color="#001624"/>
    </linearGradient>
    <radialGradient id="glow" cx="0.5" cy="0.5" r="0.5">
      <stop offset="0" stop-color="#ffffff" stop-opacity="0.28"/>
      <stop offset="1" stop-color="#ffffff" stop-opacity="0"/>
    </radialGradient>
  </defs>
  <rect width="100" height="100" rx="22" fill="url(#bg)"/>
  <!-- 神经元星芒：中心思维节点 + 外围智能体节点 -->
  <circle cx="50" cy="50" r="17" fill="url(#glow)"/>
  <g stroke="#ffffff" stroke-opacity="0.45" stroke-width="1.6" stroke-linecap="round">
    <line x1="50" y1="50" x2="50" y2="20"/>
    <line x1="50" y1="50" x2="78" y2="38"/>
    <line x1="50" y1="50" x2="71" y2="74"/>
    <line x1="50" y1="50" x2="29" y2="74"/>
    <line x1="50" y1="50" x2="22" y2="38"/>
  </g>
  <g stroke="#7dd3fc" stroke-opacity="0.32" stroke-width="1.1" fill="none">
    <path d="M50 20 Q70 22 78 38"/>
    <path d="M29 74 Q50 84 71 74"/>
    <path d="M22 38 Q18 58 29 74"/>
  </g>
  <circle cx="50" cy="50" r="7" fill="#ffffff"/>
  <circle cx="50" cy="20" r="4.6" fill="#7dd3fc"/>
  <circle cx="78" cy="38" r="4.2" fill="#c4b5fd"/>
  <circle cx="71" cy="74" r="4.6" fill="#7dd3fc"/>
  <circle cx="29" cy="74" r="4.2" fill="#c4b5fd"/>
  <circle cx="22" cy="38" r="4.6" fill="#7dd3fc"/>
</svg>
